<svg width="488" height="450" viewBox="0 0 488 450" fill="none" xmlns="http://www.w3.org/2000/svg">
<path fill-rule="evenodd" clip-rule="evenodd" d="M244.926,1.48589c48.518,-9.877,91.129,31.694,132.179,59.38c42.634,28.754,98.754,53.137,109.285,103.472c10.484,50.11,-37.082,91.448,-58.806,137.805c-18.293,39.035,-24.501,85.068,-58.223,111.922c-34.448,27.432,-81.22,41.998,-124.435,33.535c-40.43,-7.917,-57.439,-56.165,-93.437,-76.201c-44.398,-24.712,-112.547,-9.669,-138.896,-53.115c-25.884,-42.679,-8.004,-102.772,18.828,-144.862c24.387,-38.254,80.054,-37.221,115.387,-65.675c38.491,-30.997,49.691,-96.403,98.118,-106.261z" fill="black"/>
</svg>
