<svg width="488" height="450" viewBox="0 0 488 450" fill="none" xmlns="http://www.w3.org/2000/svg">
<path fill-rule="evenodd" clip-rule="evenodd" d="M244.926 1.48589C293.444 -8.39087 336.055 33.1802 377.105 60.8655C419.739 89.6196 475.859 114.003 486.39 164.338C496.874 214.448 449.308 255.786 427.584 302.143C409.291 341.178 403.083 387.211 369.361 414.065C334.913 441.497 288.141 456.063 244.926 447.6C204.496 439.683 187.487 391.435 151.489 371.399C107.091 346.687 38.9423 361.73 12.5931 318.284C-13.2909 275.605 4.58906 215.512 31.4208 173.422C55.8076 135.168 111.475 136.201 146.808 107.747C185.299 76.75 196.499 11.3441 244.926 1.48589Z" fill="currentColor"/>
</svg>
